<?xml version="1.0" standalone="no"?><!DOCTYPE svg PUBLIC "-//W3C//DTD SVG 1.1//EN" "http://www.w3.org/Graphics/SVG/1.1/DTD/svg11.dtd"><svg t="1715583195157" class="icon" viewBox="0 0 1024 1024" version="1.1" xmlns="http://www.w3.org/2000/svg" p-id="7960" xmlns:xlink="http://www.w3.org/1999/xlink" width="16" height="16"><path d="M916 213.3c0 47.1-38.2 85.3-85.3 85.3-7.6 0-15.1-1-22.1-2.9L315.8 788.6c1.9 7 2.9 14.5 2.9 22.1 0 47.1-38.2 85.3-85.3 85.3S148 857.8 148 810.7s38.2-85.3 85.3-85.3c7.6 0 15.1 1 22.1 2.9l492.8-492.8c-1.9-7-2.9-14.5-2.9-22.1 0-47.1 38.2-85.3 85.3-85.3s85.4 38.1 85.4 85.2z" p-id="7961"></path><path d="M239.6 213.3c-97.7 0-176.9 79.2-176.9 176.9 0 118 176.9 324.4 176.9 324.4s176.9-206.4 176.9-324.4c0-97.6-79.2-176.9-176.9-176.9z m0 236c-32.6 0-59-26.4-59-59s26.4-59 59-59 59 26.4 59 59c0 32.5-26.4 59-59 59z" p-id="7962"></path></svg>