<?xml version="1.0" standalone="no"?><!DOCTYPE svg PUBLIC "-//W3C//DTD SVG 1.1//EN" "http://www.w3.org/Graphics/SVG/1.1/DTD/svg11.dtd"><svg t="1715429185744" class="icon" viewBox="0 0 1024 1024" version="1.1" xmlns="http://www.w3.org/2000/svg" p-id="9910" width="24" height="24" xmlns:xlink="http://www.w3.org/1999/xlink"><path d="M388.3 591.8c44.3 44.3 116.1 44.3 160.5 0 44.3-44.4 44.3-116.1 0-160.5-44.4-44.4-116.1-44.4-160.5 0-44.3 44.3-44.3 116.1 0 160.5z m0 0" p-id="9911" fill="#ffffff"></path><path d="M933.8 563.9c1.8-17.1 2.9-34.6 2.9-52.2 0-258.5-209.5-468.2-468.2-468.2C209.9 43.5 0.3 253 0.3 511.5c0 258.4 209.6 468.2 468.2 468.2 22.7 0 44.9-1.6 66.9-4.8v-0.6c25.8 0 46.6-20.9 46.6-46.6 0-25.7-20.9-46.6-46.6-46.6v-0.6c-1.7 0.3-3.7 0.6-5.4 0.9-1.5 0.2-2.7 0.5-4.2 0.7-18.6 2.9-37.7 4.3-57.1 4.3-207-0.1-374.9-167.9-374.9-374.9 0-207.1 167.8-374.9 374.9-374.9 207.1 0 374.9 167.9 374.9 374.9 0 12.8-0.6 25.4-1.8 37.9l-111.1-17.3 115.3 226 178.4-180.5-90.6-13.7z m0 0" p-id="9912" fill="#ffffff"></path></svg>